<?xml version="1.0" encoding="UTF-8" standalone="no"?>
<!DOCTYPE svg PUBLIC "-//W3C//DTD SVG 1.1//EN" "http://www.w3.org/Graphics/SVG/1.1/DTD/svg11.dtd">
<svg width="100%" height="100%" viewBox="0 0 1295 729" version="1.1" xmlns="http://www.w3.org/2000/svg" xmlns:xlink="http://www.w3.org/1999/xlink" xml:space="preserve" xmlns:serif="http://www.serif.com/" style="fill-rule:evenodd;clip-rule:evenodd;stroke-linejoin:round;stroke-miterlimit:2;">
    <g transform="matrix(1,0,0,1,-152.867,-85.9876)">
        <rect x="152.867" y="85.988" width="1294.27" height="728.025" style="fill:rgb(12,12,12);"/>
        <circle cx="800" cy="450" r="107.458" style="fill:rgb(0,127,255);"/>
        <g transform="matrix(5.06844e-17,0.827738,-1.0669,6.53289e-17,1289.96,-212.191)">
            <path d="M794.634,417.525C795.853,416.159 797.858,415.343 800,415.343C802.142,415.343 804.147,416.159 805.366,417.525C817.644,431.295 847.785,465.098 861.564,480.551C862.944,482.099 863.103,484.113 861.977,485.781C860.85,487.448 858.624,488.492 856.198,488.492C830.098,488.492 769.902,488.492 743.802,488.492C741.376,488.492 739.15,487.448 738.023,485.781C736.897,484.113 737.056,482.099 738.436,480.551C752.215,465.098 782.356,431.295 794.634,417.525Z" style="fill:white;"/>
        </g>
    </g>
</svg>
